<?xml version="1.0" standalone="no"?>
<!DOCTYPE svg PUBLIC "-//W3C//DTD SVG 20010904//EN"
 "http://www.w3.org/TR/2001/REC-SVG-20010904/DTD/svg10.dtd">
<svg version="1.0" xmlns="http://www.w3.org/2000/svg"
 width="3500.000000pt" height="3544.000000pt" viewBox="0 0 3500.000000 3544.000000"
 preserveAspectRatio="xMidYMid meet">

<g transform="translate(0.000000,3544.000000) scale(0.100000,-0.100000)"
fill="#000000" stroke="none">
<path d="M17455 35223 c-765 -16 -1645 -99 -2426 -228 -3996 -665 -7622 -2727
-10259 -5835 -1101 -1299 -2012 -2770 -2682 -4335 -1133 -2647 -1578 -5551
-1293 -8445 284 -2871 1283 -5608 2918 -7990 960 -1400 2152 -2678 3477 -3731
2702 -2147 5966 -3424 9390 -3674 409 -29 584 -36 1080 -42 834 -9 1539 29
2331 127 3143 390 6114 1648 8591 3638 887 713 1732 1543 2455 2413 2888 3474
4276 7886 3902 12399 -305 3692 -1798 7172 -4267 9950 -465 522 -1006 1060
-1528 1516 -2046 1791 -4476 3066 -7094 3724 -1499 376 -3017 546 -4595 513z
m1405 -198 c1503 -92 2898 -357 4300 -817 151 -50 287 -97 302 -104 30 -16
505 -394 734 -585 1123 -937 1909 -1764 2471 -2600 118 -176 243 -375 243
-387 0 -4 -77 -38 -172 -75 -465 -186 -1081 -498 -1618 -819 -665 -398 -1338
-851 -2179 -1469 l-214 -158 -126 63 c-928 466 -2194 896 -3503 1192 -1064
240 -2104 404 -3706 583 -306 34 -437 52 -447 62 -7 8 -145 221 -306 474 -579
911 -870 1338 -1226 1802 -293 383 -641 766 -925 1020 -32 28 -58 54 -58 56 0
6 191 130 315 204 1056 630 2677 1156 4600 1492 127 23 293 52 370 66 137 24
149 24 520 20 209 -3 490 -11 625 -20z m-2215 -20 c-5 -3 -107 -25 -225 -50
-1224 -263 -2272 -600 -3134 -1007 -386 -182 -763 -400 -1051 -606 -120 -86
-121 -87 -385 -183 -1790 -651 -3257 -1383 -5239 -2612 l-353 -219 -38 37 -38
37 132 123 c875 817 1923 1597 2981 2215 1976 1156 4135 1889 6415 2179 411
53 986 105 935 86z m7715 -1242 c1856 -768 3590 -1887 5080 -3278 214 -200
708 -697 894 -899 1434 -1557 2549 -3339 3334 -5326 3 -8 -30 16 -73 54 -358
312 -885 573 -1345 666 l-55 11 -121 182 c-387 580 -879 1212 -1445 1857 -787
897 -1659 1769 -3144 3142 -181 168 -337 314 -346 324 -9 10 -42 64 -74 119
-577 991 -1541 2042 -2873 3132 -86 71 -165 136 -177 145 -24 21 55 -9 345
-129z m-18288 -3694 c-581 -1039 -1021 -2114 -1277 -3124 -164 -646 -252
-1223 -285 -1869 l-11 -210 -86 -80 c-182 -171 -537 -559 -754 -826 -782 -960
-1463 -2179 -1964 -3514 -186 -496 -346 -1008 -473 -1511 l-28 -110 -58 -11
c-31 -7 -98 -15 -148 -19 l-91 -7 7 133 c88 1739 427 3410 1018 5019 765 2081
1940 4001 3458 5650 68 74 248 260 399 413 l275 277 44 -43 44 -44 -70 -124z
m9365 -399 c1782 -200 2957 -398 4148 -700 1087 -276 2020 -608 2926 -1043
l137 -66 32 -88 c17 -48 216 -599 442 -1223 883 -2447 1270 -3498 1743 -4735
135 -353 155 -413 145 -430 -29 -45 -392 -513 -626 -806 -1314 -1646 -2807
-3220 -4509 -4753 -132 -119 -247 -216 -255 -216 -8 0 -274 45 -590 100 -2040
355 -3362 580 -5514 939 l-1240 207 -116 194 c-1253 2094 -1980 4008 -2204
5800 -54 430 -81 938 -71 1315 9 342 -9 290 172 516 874 1088 2146 2413 4473
4657 348 335 399 381 427 381 17 1 233 -22 480 -49z m16953 -4920 c269 -77
527 -186 721 -306 137 -85 354 -252 467 -359 106 -101 241 -255 266 -303 20
-39 205 -603 275 -837 319 -1071 533 -2179 635 -3295 82 -891 93 -1851 30
-2755 -98 -1426 -375 -2827 -824 -4175 -101 -303 -226 -649 -238 -662 -4 -4
-62 28 -129 72 -441 286 -861 504 -1280 665 l-72 28 -5 71 c-3 39 -17 265 -31
501 -130 2209 -308 3623 -610 4852 -144 582 -317 1117 -511 1569 l-73 171 51
118 c286 669 536 1636 947 3665 100 494 199 978 206 1007 3 12 11 20 18 18 6
-2 77 -22 157 -45z m-27419 -24 c965 -150 1593 -202 3034 -251 747 -25 1402
-61 1661 -91 l51 -6 -5 -266 c-5 -298 8 -636 39 -967 171 -1869 898 -3880
2198 -6079 78 -131 141 -242 141 -247 0 -5 -58 -86 -128 -181 -1090 -1466
-2056 -3211 -3073 -5550 l-64 -148 -485 0 c-1229 1 -1903 41 -2515 151 -838
150 -1503 429 -2095 878 -135 102 -240 193 -240 208 0 7 -28 53 -63 101 -314
434 -638 1006 -881 1556 -504 1139 -859 2450 -1181 4366 -52 308 -56 339 -45
390 28 135 134 552 185 728 542 1890 1466 3633 2589 4887 173 193 549 565 571
565 12 0 149 -20 306 -44z m20607 -3565 c224 -60 684 -184 1022 -276 1355
-367 2059 -549 2710 -699 503 -116 1089 -235 1417 -287 l143 -23 60 -141 c310
-732 559 -1646 734 -2700 176 -1060 281 -2142 390 -4039 l14 -239 -87 -116
c-48 -64 -303 -408 -566 -766 -883 -1199 -1267 -1704 -1684 -2215 -889 -1088
-1641 -1805 -2303 -2194 -96 -56 -99 -57 -220 -71 -1757 -207 -3452 -29 -5033
527 -377 133 -923 362 -1224 512 l-88 45 -6 63 c-4 35 -27 266 -51 513 -25
248 -70 711 -101 1030 -120 1250 -203 1956 -311 2662 -146 954 -335 1818 -565
2583 -27 90 -49 167 -49 171 0 4 84 83 187 175 1100 989 2173 2057 3113 3099
673 745 1415 1640 1983 2393 43 56 85 102 93 102 8 0 198 -49 422 -109z
m-21996 -9297 c489 -384 1075 -669 1728 -838 721 -187 1463 -255 2791 -256
289 0 594 -3 677 -7 l151 -6 229 -291 c125 -160 383 -493 572 -741 570 -747
834 -1082 1124 -1430 938 -1127 1866 -1979 2975 -2730 111 -75 201 -138 201
-140 0 -1 -16 -67 -34 -146 -101 -418 -131 -765 -123 -1389 7 -505 31 -837
107 -1435 16 -126 27 -231 25 -233 -11 -12 -241 -65 -370 -87 -673 -111 -1370
-11 -2405 348 -364 127 -366 127 -720 297 -2429 1166 -4568 2918 -6205 5084
-326 432 -685 955 -663 966 7 4 59 20 116 35 83 23 102 32 96 44 -138 342
-295 854 -363 1187 -106 523 -133 1085 -76 1587 17 148 36 277 41 277 2 0 59
-43 126 -96z m17371 -3624 c1247 -598 2542 -952 3892 -1064 644 -54 1470 -46
2130 19 83 8 154 15 159 15 10 0 2 -235 -19 -525 -67 -919 -219 -1626 -482
-2245 -64 -149 -192 -397 -268 -519 -36 -57 -64 -105 -63 -106 5 -5 328 -25
507 -31 153 -6 171 -9 155 -21 -42 -32 -362 -228 -559 -343 -2082 -1217 -4407
-1975 -6805 -2219 -721 -74 -1473 -102 -2163 -83 -695 20 -783 28 -1160 103
-854 171 -1490 418 -1868 725 -80 65 -207 192 -214 213 -7 26 -83 653 -100
831 -65 687 -71 1270 -19 1730 29 266 116 686 148 716 27 27 806 319 1396 524
146 51 472 163 725 250 957 329 1376 482 1851 675 1017 414 1834 862 2454
1344 63 49 120 90 126 90 6 1 86 -35 177 -79z"/>
</g>
</svg>
