<?xml version="1.0" standalone="no"?>
<!DOCTYPE svg PUBLIC "-//W3C//DTD SVG 20010904//EN"
 "http://www.w3.org/TR/2001/REC-SVG-20010904/DTD/svg10.dtd">
<svg version="1.0" xmlns="http://www.w3.org/2000/svg"
 width="1536.000000pt" height="1536.000000pt" viewBox="0 0 1536.000000 1536.000000"
 preserveAspectRatio="xMidYMid meet">

<g transform="translate(0.000000,1536.000000) scale(0.100000,-0.100000)"
fill="#000000" stroke="none">
<path d="M7426 10959 c-1465 -84 -2800 -899 -3551 -2169 -491 -831 -692 -1811
-569 -2780 142 -1129 745 -2180 1662 -2897 118 -94 403 -285 527 -355 525
-298 1094 -482 1705 -553 296 -35 730 -30 1050 11 738 94 1466 390 2065 837
263 197 608 528 799 767 548 687 860 1446 958 2330 20 177 17 710 -5 890 -66
548 -201 1006 -432 1471 -314 628 -753 1156 -1309 1572 -620 465 -1353 760
-2116 852 -263 31 -518 39 -784 24z m734 -144 c853 -106 1585 -416 2244 -951
156 -127 463 -434 590 -590 448 -551 748 -1179 885 -1852 108 -524 113 -1091
15 -1619 -240 -1300 -1075 -2417 -2260 -3025 -1105 -566 -2378 -628 -3534
-171 -283 112 -522 238 -795 419 -1009 668 -1691 1739 -1865 2929 -32 221 -43
371 -42 625 0 479 70 905 221 1350 503 1484 1788 2582 3331 2849 106 18 326
45 445 55 116 9 645 -4 765 -19z"/>
<path d="M7372 10662 l-343 -26 6 -100 c4 -56 10 -104 14 -107 3 -4 84 0 180
7 96 8 177 12 179 9 3 -2 -76 -105 -174 -227 l-178 -223 2 -65 c1 -36 5 -82 8
-104 l6 -38 52 5 c28 3 196 16 374 29 l324 23 -7 105 c-4 58 -8 106 -9 107 0
1 -84 -5 -186 -13 -102 -8 -195 -13 -206 -12 -19 3 4 36 157 232 l179 229 0
52 c0 78 -11 145 -24 144 -6 -1 -165 -13 -354 -27z"/>
<path d="M8185 10578 c-123 -562 -161 -744 -156 -749 3 -3 158 -39 345 -79
228 -49 340 -69 345 -62 8 14 45 192 40 196 -2 1 -100 24 -218 49 -118 26
-216 48 -218 50 -2 2 2 27 8 55 11 45 15 51 33 47 114 -27 344 -75 358 -75 10
0 18 4 18 8 0 4 8 47 19 94 l18 86 -126 27 c-69 14 -157 33 -194 42 l-69 15 7
47 c4 25 10 49 13 53 4 4 101 -13 216 -38 160 -35 211 -43 216 -33 10 15 44
188 39 193 -5 5 -653 146 -668 146 -5 0 -17 -33 -26 -72z"/>
<path d="M6438 10487 c-60 -23 -108 -45 -108 -49 0 -4 41 -112 90 -239 50
-127 95 -251 100 -275 15 -64 -6 -109 -62 -134 -58 -26 -91 -25 -128 6 -40 34
-51 56 -155 326 l-87 226 -62 -23 c-96 -36 -171 -66 -174 -70 -5 -5 184 -487
213 -545 27 -53 101 -125 150 -146 51 -21 171 -18 251 7 238 73 346 204 316
379 -13 73 -211 580 -226 579 -6 0 -59 -19 -118 -42z"/>
<path d="M9106 9964 c-97 -206 -176 -379 -176 -382 0 -11 224 -112 231 -104
10 12 349 740 349 751 0 9 -162 91 -208 105 -17 6 -42 -43 -196 -370z"/>
<path d="M9636 9698 l-259 -332 29 -23 c110 -89 177 -135 182 -126 4 5 44 58
90 116 l84 107 31 -22 c18 -13 54 -44 81 -70 46 -45 48 -49 43 -88 -3 -23 -21
-65 -40 -94 -19 -29 -44 -70 -55 -93 l-21 -41 95 -74 c103 -80 114 -86 114
-66 0 7 25 51 55 98 77 118 98 199 69 273 -3 9 7 11 35 9 54 -5 100 12 151 55
119 103 117 258 -6 374 -46 43 -408 330 -416 328 -1 0 -120 -149 -262 -331z
m423 -43 c95 -77 109 -112 65 -164 -28 -34 -71 -41 -109 -18 -41 24 -135 100
-135 108 0 13 92 129 102 129 5 0 40 -25 77 -55z"/>
<path d="M5300 9893 c-30 -15 -146 -101 -258 -191 l-202 -163 187 -232 c103
-128 222 -276 265 -330 l79 -97 100 81 100 81 -34 41 c-107 134 -147 185 -147
189 0 7 110 92 139 107 44 24 85 6 176 -80 l85 -81 24 19 c13 10 57 45 98 78
l74 59 -91 89 c-103 102 -149 129 -217 130 -40 1 -47 4 -42 16 38 84 -9 215
-98 278 -34 23 -54 28 -112 31 -62 3 -78 0 -126 -25z m115 -249 c49 -53 29
-99 -83 -186 l-59 -47 -53 66 -53 67 39 34 c62 55 125 92 156 92 18 0 38 -10
53 -26z"/>
<path d="M7520 9654 c-269 -23 -423 -47 -601 -94 -1745 -455 -2729 -2304
-2134 -4009 368 -1052 1293 -1835 2387 -2020 370 -63 805 -52 1168 29 1029
229 1886 992 2235 1991 235 674 232 1401 -10 2074 -56 156 -189 432 -276 570
-308 492 -732 881 -1240 1135 -326 164 -644 261 -1002 305 -120 15 -441 27
-527 19z m475 -886 l192 -3 -144 -105 c-80 -58 -149 -108 -155 -111 -6 -4 14
-78 48 -183 31 -97 54 -179 51 -182 -3 -3 -70 42 -150 100 -80 58 -150 106
-156 106 -6 0 -78 -49 -161 -110 -82 -60 -150 -105 -150 -99 0 6 26 89 57 185
37 114 54 178 47 182 -6 4 -75 54 -155 112 l-144 105 192 3 193 2 56 178 c31
97 59 181 62 186 3 5 32 -75 65 -177 l60 -187 192 -2z m-1939 -1318 l57 -180
196 -2 196 -3 -150 -109 c-82 -60 -153 -112 -157 -115 -4 -4 19 -87 52 -186
32 -99 57 -181 55 -183 -1 -2 -68 43 -147 100 -78 57 -148 107 -155 111 -7 5
-74 -37 -164 -103 -84 -60 -154 -108 -156 -106 -3 2 21 81 52 176 31 94 54
177 52 184 -3 7 -70 59 -151 117 -80 57 -145 107 -146 111 0 4 86 9 192 10
l192 3 53 165 c60 189 61 190 67 190 2 0 30 -81 62 -180z m3431 -57 l48 -153
193 0 c105 0 192 -3 192 -7 -1 -5 -70 -57 -154 -118 l-153 -109 54 -166 c29
-91 55 -173 59 -182 3 -10 3 -18 0 -18 -3 0 -74 50 -157 110 -85 62 -156 107
-162 103 -7 -4 -76 -54 -155 -111 -79 -57 -145 -102 -147 -100 -3 2 22 85 55
183 l59 179 -57 41 c-31 23 -102 75 -157 116 l-100 74 195 3 196 2 58 183 c68
212 55 215 133 -30z m-1253 -669 l43 -129 143 -3 144 -3 -116 -84 -116 -85 43
-132 c24 -73 41 -135 39 -137 -1 -2 -53 33 -114 78 -60 44 -112 81 -115 81 -3
0 -55 -36 -116 -81 -61 -44 -113 -79 -115 -77 -2 3 14 58 36 123 22 66 40 126
40 135 0 10 -47 50 -111 96 l-112 79 144 5 143 5 37 115 c21 63 40 124 43 135
3 10 8 17 11 13 3 -3 25 -63 49 -134z m-414 -1879 l62 -185 191 -2 192 -3
-144 -105 c-80 -58 -149 -108 -155 -112 -7 -4 10 -71 47 -187 31 -98 57 -182
57 -185 0 -3 -65 42 -146 100 -80 58 -151 107 -159 110 -8 3 -80 -42 -167
-105 -83 -61 -153 -109 -155 -107 -1 1 24 83 57 181 33 98 57 181 55 185 -3 4
-72 57 -155 116 l-150 109 193 3 193 2 59 185 c32 102 60 185 61 185 1 0 30
-83 64 -185z"/>
<path d="M10623 9065 c-210 -59 -363 -240 -363 -430 0 -112 72 -262 163 -340
71 -61 140 -88 237 -93 60 -3 101 1 140 12 128 37 259 147 317 263 25 53 28
68 28 164 0 102 -1 108 -38 182 -77 156 -202 245 -355 253 -49 3 -96 -1 -129
-11z m211 -239 c42 -18 85 -73 93 -120 9 -55 -20 -118 -78 -170 -135 -122
-277 -129 -343 -17 -44 76 -10 177 84 246 93 68 177 89 244 61z"/>
<path d="M4470 9048 c-78 -30 -165 -120 -216 -222 -38 -78 -39 -83 -39 -185 0
-96 3 -112 28 -163 56 -115 168 -209 301 -256 98 -34 216 -29 302 13 117 57
220 195 245 329 12 65 6 116 -23 192 -19 54 -90 144 -112 144 -7 0 -43 -45
-80 -99 l-68 -99 27 -36 c72 -95 19 -214 -99 -224 -128 -10 -306 129 -306 240
0 97 94 170 179 140 29 -10 30 -9 95 89 36 54 66 103 66 108 0 16 -130 51
-188 50 -33 0 -80 -9 -112 -21z"/>
<path d="M3595 6900 c-15 -193 -26 -352 -24 -354 2 -2 49 -7 105 -10 l101 -7
6 53 c3 29 12 129 19 222 9 120 16 170 25 173 7 3 33 2 57 -1 l43 -7 -4 -42
c-2 -23 -10 -113 -16 -199 l-13 -156 94 -7 c51 -4 95 -5 99 -2 3 3 12 88 20
189 8 101 16 188 17 193 2 6 26 8 55 7 61 -5 58 16 36 -251 -12 -135 -13 -186
-5 -191 13 -8 191 -22 197 -16 4 4 63 690 60 692 -4 3 -784 64 -813 64 l-30 0
-29 -350z"/>
<path d="M11631 7239 c-52 -5 -96 -11 -99 -14 -3 -3 2 -103 11 -222 13 -169
13 -219 4 -225 -7 -4 -31 -8 -54 -8 l-41 0 -6 58 c-3 31 -11 120 -17 197 -6
77 -11 141 -12 142 -5 4 -177 -11 -185 -16 -7 -4 -6 -64 4 -176 20 -248 24
-225 -41 -225 -46 0 -55 3 -55 18 0 9 -7 98 -15 197 -8 99 -15 189 -15 200 0
20 -4 20 -101 13 -56 -4 -104 -10 -107 -13 -6 -5 43 -684 49 -689 10 -9 833
60 836 70 2 6 -8 161 -22 343 -14 182 -25 338 -25 346 0 8 -3 14 -7 14 -5 -1
-50 -6 -102 -10z"/>
<path d="M4125 6221 c-93 -43 -120 -102 -140 -310 -18 -176 -26 -196 -79 -196
-54 0 -79 34 -84 118 -4 57 -2 64 23 90 15 15 34 27 41 27 7 0 15 4 18 9 6 10
-38 238 -48 248 -3 3 -34 -8 -69 -25 -74 -36 -116 -88 -141 -171 -41 -138 1
-343 93 -460 34 -42 108 -85 164 -95 50 -9 137 9 179 37 41 28 75 78 89 131 6
23 17 106 23 186 14 164 23 190 66 190 76 0 97 -178 23 -196 -16 -4 -22 -12
-19 -23 2 -9 12 -60 22 -115 10 -54 23 -100 30 -103 20 -8 103 38 135 75 42
47 59 90 66 166 11 119 -28 259 -97 346 -65 82 -201 115 -295 71z"/>
<path d="M11015 6181 c-47 -21 -82 -59 -108 -116 -15 -35 -130 -535 -124 -542
6 -5 827 -179 827 -174 0 2 25 121 56 265 60 283 62 317 23 406 -27 60 -54 88
-114 116 -97 46 -211 26 -268 -47 l-25 -33 -15 35 c-40 93 -155 134 -252 90z
m163 -258 c19 -25 16 -61 -13 -190 -6 -26 -14 -27 -85 -12 -51 11 -51 11 -45
42 21 105 37 154 57 170 25 21 65 16 86 -10z m299 -28 c11 -8 24 -26 27 -40 5
-21 -27 -201 -38 -212 -2 -3 -39 3 -81 12 -69 16 -76 19 -72 39 3 11 13 55 22
97 9 43 25 86 36 98 23 25 75 28 106 6z"/>
<path d="M4248 5221 c-203 -103 -370 -190 -374 -193 -6 -7 103 -228 112 -228
3 0 52 25 109 55 56 30 106 55 111 55 5 0 31 -43 57 -95 91 -178 176 -242 312
-233 172 12 297 149 282 311 -5 51 -22 94 -110 271 -58 116 -111 219 -119 228
-12 15 -46 0 -380 -171z m342 -223 c47 -95 49 -120 15 -153 -37 -38 -95 -35
-130 6 -26 31 -89 148 -83 154 8 7 144 74 151 75 4 0 26 -37 47 -82z"/>
<path d="M10640 5200 c-34 -61 -61 -112 -59 -114 2 -1 92 -51 199 -111 107
-60 219 -123 248 -142 92 -58 106 -136 37 -209 -58 -61 -87 -53 -370 105 -130
73 -241 129 -245 125 -5 -5 -34 -54 -65 -108 -44 -80 -53 -102 -43 -111 28
-26 487 -274 536 -290 64 -21 150 -17 207 10 69 33 146 122 200 230 45 90 49
105 53 184 4 79 2 90 -25 140 -15 30 -48 71 -73 92 -36 30 -518 309 -534 309
-2 0 -32 -50 -66 -110z"/>
<path d="M4951 4444 c-187 -50 -343 -229 -358 -411 -10 -118 29 -221 123 -322
144 -156 358 -184 532 -71 80 52 157 138 195 217 29 62 32 76 32 168 0 92 -3
106 -32 168 -60 126 -185 230 -311 256 -69 14 -114 13 -181 -5z m237 -251 c34
-26 62 -81 62 -123 0 -107 -141 -252 -259 -267 -55 -7 -121 31 -148 87 -29 56
-29 83 1 145 72 152 246 232 344 158z"/>
<path d="M9845 4130 c-49 -49 -87 -91 -84 -94 257 -262 584 -586 590 -584 4 2
106 100 227 219 l219 217 -76 76 -76 76 -132 -132 -133 -133 -223 223 -222
222 -90 -90z"/>
<path d="M5601 3514 c-111 -201 -199 -370 -196 -375 7 -10 215 -123 219 -118
2 2 33 59 70 127 37 67 71 122 76 122 12 0 132 -69 152 -87 35 -31 32 -72 -12
-187 -22 -60 -37 -112 -33 -116 11 -10 210 -120 217 -120 3 0 6 9 6 20 0 10
16 55 35 99 59 133 65 190 31 273 -6 13 1 17 33 23 122 20 217 164 190 285
-12 52 -50 112 -94 146 -25 19 -482 274 -491 274 -1 0 -93 -165 -203 -366z
m415 25 c80 -44 114 -78 114 -116 0 -32 -51 -83 -83 -83 -34 0 -193 86 -189
102 5 19 73 138 79 138 3 0 39 -18 79 -41z"/>
<path d="M9378 3789 c-68 -16 -180 -80 -233 -132 -74 -75 -108 -150 -113 -252
-15 -291 242 -546 500 -496 203 40 347 188 356 367 4 80 -20 177 -43 172 -7
-2 -58 -28 -113 -58 -82 -45 -100 -58 -96 -73 12 -38 7 -106 -10 -131 -19 -31
-85 -66 -121 -66 -68 0 -148 72 -197 176 -55 117 -44 201 31 251 54 36 141 26
180 -20 10 -13 28 -6 121 46 l110 61 -24 30 c-36 48 -116 105 -170 121 -54 16
-120 18 -178 4z"/>
<path d="M6625 3437 c-4 -13 -14 -60 -24 -105 l-18 -81 71 -15 c39 -9 89 -19
111 -24 23 -4 41 -14 43 -23 1 -8 -26 -147 -62 -309 -36 -162 -64 -296 -62
-297 9 -9 241 -52 246 -46 4 4 35 139 70 298 34 160 66 294 70 299 5 4 56 -2
115 -14 61 -13 109 -19 114 -14 14 16 44 185 35 193 -5 5 -157 41 -339 81
-181 39 -338 74 -347 76 -12 4 -19 -2 -23 -19z"/>
<path d="M7816 3309 c-153 -10 -280 -19 -281 -21 -4 -4 46 -832 51 -837 4 -4
514 24 638 36 l69 6 -6 99 c-3 55 -8 102 -10 105 -3 3 -103 -1 -221 -8 -119
-7 -219 -9 -222 -6 -4 4 -9 28 -12 55 l-4 49 133 7 c74 3 165 9 203 13 l68 6
-7 96 c-4 53 -8 97 -9 98 -1 2 -257 -14 -343 -21 l-51 -4 -7 50 c-5 35 -4 53
5 58 6 4 75 10 153 14 78 4 172 9 210 13 l67 6 0 36 c0 20 -3 66 -7 104 l-6
67 -66 -1 c-36 -1 -191 -10 -345 -20z"/>
</g>
</svg>
