<?xml version="1.0" standalone="no"?>
<!DOCTYPE svg PUBLIC "-//W3C//DTD SVG 20010904//EN"
 "http://www.w3.org/TR/2001/REC-SVG-20010904/DTD/svg10.dtd">
<svg version="1.0" xmlns="http://www.w3.org/2000/svg"
 width="1536.000000pt" height="1536.000000pt" viewBox="0 0 1536.000000 1536.000000"
 preserveAspectRatio="xMidYMid meet">

<g transform="translate(0.000000,1536.000000) scale(0.100000,-0.100000)"
fill="#000000" stroke="none">
<path d="M3160 11023 c0 -2332 4 -2583 41 -2943 58 -571 191 -1157 382 -1685
623 -1721 1788 -3087 3383 -3965 235 -130 678 -340 715 -340 10 0 103 39 206
86 1328 605 2431 1563 3183 2764 603 962 976 2039 1089 3140 37 360 41 611 41
2943 l0 2267 -4520 0 -4520 0 0 -2267z m1483 1808 c88 -34 181 -43 507 -51
236 -6 361 -13 423 -24 447 -84 711 -298 928 -751 70 -148 76 -165 54 -165
-32 0 -71 -29 -93 -68 -12 -23 -49 -106 -81 -186 -59 -147 -120 -257 -186
-333 l-37 -43 -124 0 -124 0 46 63 c58 78 86 133 116 227 20 66 23 95 23 245
0 198 -11 250 -79 390 -108 219 -313 357 -596 400 -184 29 -393 14 -588 -41
-51 -15 -94 -25 -96 -23 -5 8 -136 354 -136 362 0 10 14 9 43 -2z m678 -351
c35 0 46 -30 58 -162 13 -136 -5 -323 -39 -414 l-11 -28 -30 54 c-120 221
-389 282 -659 152 -58 -28 -95 -56 -166 -127 -79 -78 -97 -103 -141 -195 -73
-150 -97 -251 -97 -420 1 -168 24 -273 93 -415 106 -216 289 -368 528 -437 68
-20 100 -23 248 -22 178 0 168 -2 358 61 16 5 17 -3 15 -113 l-3 -118 -58 -18
c-171 -52 -435 -67 -592 -33 -105 22 -239 67 -317 106 -321 160 -581 478 -712
869 -19 58 -37 121 -38 139 -3 31 0 35 28 43 49 13 85 63 180 248 106 208 179
314 304 440 137 137 299 243 469 307 148 55 395 98 510 87 24 -2 56 -4 72 -4z
m1720 -157 c7 -32 13 -107 12 -168 -1 -192 -64 -330 -194 -429 l-64 -49 -6 74
c-7 85 -32 143 -79 182 -28 24 -86 47 -117 47 -7 0 -31 37 -54 82 -23 45 -52
98 -64 118 l-24 37 167 6 c180 6 238 18 307 62 22 15 51 42 65 60 14 19 28 35
32 35 4 0 12 -26 19 -57z m-1502 -63 c84 -22 226 -40 311 -40 l55 0 31 -52
c30 -50 74 -157 74 -178 0 -6 -35 -10 -80 -10 l-80 0 0 -415 0 -415 293 0
c372 0 429 10 522 91 l35 31 11 -29 c17 -42 23 -229 10 -294 -16 -78 -62 -170
-113 -225 -42 -46 -114 -104 -128 -104 -4 0 -10 27 -14 61 -11 112 -60 184
-145 214 -33 11 -88 15 -233 15 l-190 0 -66 61 c-74 69 -173 136 -244 165
l-48 19 0 416 0 416 -55 144 c-30 79 -55 147 -55 152 0 5 8 6 17 3 9 -4 51
-16 92 -26z m-499 -190 c20 -10 20 -22 20 -455 l0 -445 58 0 c81 0 207 -17
299 -40 257 -66 423 -210 738 -644 138 -190 231 -287 311 -326 42 -22 63 -25
154 -25 102 0 107 1 185 40 44 21 84 41 89 43 17 8 -4 -82 -34 -146 -35 -75
-103 -165 -166 -221 -102 -89 -238 -161 -271 -143 -34 19 -159 152 -222 237
-38 50 -149 212 -248 360 -100 149 -211 305 -248 348 -146 171 -301 246 -545
263 l-100 7 -2 -199 -3 -199 -56 2 c-58 2 -159 25 -217 48 l-32 14 2 738 3
738 55 12 c61 14 199 9 230 -7z m598 -1434 c43 -47 109 -129 145 -183 l65 -98
5 -165 c6 -231 38 -322 146 -423 28 -26 51 -49 51 -51 0 -11 -147 -29 -230
-29 -157 1 -279 32 -374 94 l-46 31 44 49 c25 28 55 76 68 107 22 55 23 69 26
405 2 191 7 347 12 347 4 0 44 -38 88 -84z m-793 -455 c33 -5 95 -13 138 -16
l77 -7 0 -51 c1 -130 59 -268 148 -347 l54 -48 -38 -12 c-22 -6 -86 -13 -144
-17 -168 -9 -335 29 -430 98 l-42 30 36 35 c20 19 45 53 57 76 26 50 49 156
49 226 0 46 2 53 18 48 9 -3 44 -9 77 -15z"/>
</g>
</svg>
