<?xml version="1.0" standalone="no"?>
<!DOCTYPE svg PUBLIC "-//W3C//DTD SVG 20010904//EN"
 "http://www.w3.org/TR/2001/REC-SVG-20010904/DTD/svg10.dtd">
<svg version="1.0" xmlns="http://www.w3.org/2000/svg"
 width="1536.000000pt" height="1536.000000pt" viewBox="0 0 1536.000000 1536.000000"
 preserveAspectRatio="xMidYMid meet">

<g transform="translate(0.000000,1536.000000) scale(0.100000,-0.100000)"
fill="#000000" stroke="none">
<path d="M4296 10954 c-355 -383 -646 -699 -646 -703 0 -4 29 -31 64 -60 91
-73 212 -204 271 -292 146 -218 209 -432 208 -714 0 -458 -188 -956 -609
-1617 -142 -222 -220 -362 -285 -508 -250 -567 -300 -1134 -150 -1727 158
-623 481 -1106 951 -1420 321 -215 734 -361 1205 -427 61 -8 198 -22 305 -31
448 -37 758 -103 1085 -232 328 -129 655 -326 912 -550 l72 -63 103 86 c537
450 1163 697 1918 754 401 31 664 78 950 172 386 126 676 300 941 567 234 236
383 469 514 806 192 495 241 1050 134 1529 -82 368 -212 658 -486 1086 -324
503 -519 967 -574 1360 -17 125 -15 348 5 455 56 301 221 574 463 766 35 28
63 55 63 60 0 8 -1287 1399 -1294 1399 -2 0 -87 -42 -188 -93 -303 -153 -632
-275 -975 -361 -968 -243 -2188 -241 -3167 5 -358 90 -790 257 -1054 407 -41
23 -78 42 -82 42 -5 0 -299 -313 -654 -696z m830 427 c445 -220 965 -374 1534
-455 965 -138 2048 -71 2875 179 34 10 44 11 33 2 -9 -6 -686 -445 -1505 -974
-818 -529 -2163 -1399 -2988 -1932 -824 -534 -1501 -969 -1503 -966 -6 5 13
37 148 250 162 256 242 397 338 593 390 793 412 1433 67 1917 -31 44 -99 123
-152 176 l-95 96 548 592 c301 325 550 591 554 591 4 0 70 -31 146 -69z m4808
-502 l26 -20 0 -200 0 -200 -212 -140 -213 -140 -5 38 c-7 48 -16 63 -39 63
-10 0 -97 -58 -193 -130 -126 -93 -179 -138 -188 -161 -10 -24 -12 -109 -7
-390 5 -307 8 -364 21 -385 9 -13 24 -24 34 -24 10 0 83 44 162 98 l145 97 5
185 5 185 240 146 240 146 3 -291 c2 -242 0 -299 -14 -345 -23 -80 -69 -162
-117 -209 -41 -40 -982 -642 -1044 -668 -38 -17 -97 -18 -124 -4 -10 6 -29 30
-41 53 l-23 42 -3 658 c-2 416 1 671 7 695 6 20 25 62 43 92 32 53 52 67 593
428 308 205 574 380 590 387 43 20 78 18 109 -6z m726 -948 l0 -199 -182 -119
c-101 -66 -195 -128 -210 -138 l-28 -17 0 205 0 205 208 131 c114 72 208 131
210 131 1 0 2 -90 2 -199z m-2902 -587 l-3 -207 -149 -97 -149 -97 -48 20 -48
21 -171 -114 -170 -113 0 -163 c0 -90 2 -164 4 -164 2 0 64 35 137 78 l134 77
5 62 5 62 95 66 c52 37 103 71 113 76 16 9 17 -9 17 -314 l0 -324 -123 -82
c-67 -44 -126 -81 -130 -81 -3 0 -8 45 -9 99 l-3 99 -120 -78 -120 -78 -3
-197 c-2 -157 0 -195 10 -189 7 4 57 36 110 70 156 101 138 109 138 -64 l0
-149 -477 -302 -478 -301 -7 83 c-3 45 -6 110 -7 144 l-1 63 100 66 100 67 0
519 c0 286 -3 517 -7 515 -5 -2 -47 -27 -94 -55 -48 -29 -90 -52 -93 -52 -3 0
-6 69 -6 153 l0 154 718 466 c394 256 720 466 725 467 4 0 6 -93 5 -206z
m2910 -5540 c-17 -16 -215 -76 -359 -108 -118 -26 -318 -60 -426 -71 l-63 -7
0 2630 0 2630 428 275 427 276 3 -2807 c2 -2237 -1 -2809 -10 -2818z m-2379
4619 l0 -198 -92 -59 c-51 -33 -143 -92 -204 -133 l-113 -73 0 204 0 204 198
125 c108 69 200 126 205 126 4 1 7 -88 6 -196z m679 -2515 l-3 -2411 -195 -67
c-215 -73 -390 -149 -550 -239 l-105 -59 -3 2316 c-1 1575 1 2319 8 2326 15
15 833 544 843 545 4 1 6 -1084 5 -2411z m-3686 1950 c40 -20 48 -60 48 -225
l0 -158 -227 -141 -228 -140 -5 68 c-5 66 -16 87 -45 88 -17 0 -84 -39 -215
-125 -159 -105 -163 -112 -158 -258 3 -94 6 -111 22 -123 11 -8 25 -14 31 -14
6 0 119 66 251 147 234 143 318 183 387 183 57 0 106 -20 148 -59 l40 -39 -3
-323 c-3 -314 -4 -326 -26 -375 -13 -29 -35 -63 -50 -76 -37 -34 -1079 -704
-1125 -723 -69 -29 -115 -17 -144 38 -15 27 -18 67 -21 253 l-4 222 244 151
243 151 3 -127 c3 -129 11 -159 41 -148 9 3 96 59 193 123 l178 117 -3 184
c-2 209 -2 209 -80 197 -36 -6 -98 -41 -289 -163 -280 -180 -327 -207 -386
-223 -55 -14 -90 2 -114 50 -14 29 -18 84 -24 342 -8 348 -6 363 64 430 59 58
1099 700 1147 708 42 7 78 3 107 -12z m6381 -406 c115 -179 263 -466 321 -623
162 -441 193 -923 90 -1388 -62 -276 -191 -591 -330 -804 -69 -107 -194 -267
-206 -267 -5 0 -8 739 -7 1643 0 1274 3 1638 12 1624 7 -10 61 -93 120 -185z
m-4406 -924 c-4 -376 -7 -1294 -7 -2041 l0 -1357 -52 31 c-166 98 -460 225
-680 294 l-118 37 0 1586 0 1587 423 272 c232 150 426 273 431 273 6 0 7 -272
3 -682z m-1239 430 l-3 -193 -130 -88 c-71 -48 -165 -110 -208 -137 l-77 -50
2 206 3 207 195 123 c107 68 201 124 208 124 10 0 12 -42 10 -192z m-478
-2098 c0 -1017 -2 -1240 -13 -1240 -24 0 -238 30 -331 46 -102 17 -362 83
-446 112 l-55 19 0 882 0 883 415 268 c228 148 418 269 423 270 4 0 7 -558 7
-1240z m-1710 -182 l0 -322 -37 44 c-89 102 -247 334 -267 391 -4 10 42 45
147 111 83 54 153 97 155 98 1 0 2 -145 2 -322z"/>
<path d="M5370 10915 c-300 -64 -565 -274 -700 -556 -70 -147 -84 -217 -84
-424 0 -206 13 -271 83 -421 119 -254 358 -460 626 -540 110 -32 328 -44 452
-24 368 59 692 350 792 711 65 231 42 494 -60 706 -121 252 -360 455 -631 534
-94 28 -376 36 -478 14z m424 -101 l79 -18 58 -120 c65 -138 112 -277 129
-388 16 -97 8 -303 -14 -383 -18 -65 -92 -225 -104 -225 -4 0 -6 64 -4 142 8
342 -102 646 -339 935 -33 39 -59 75 -59 79 0 11 168 -3 254 -22z m-302 -79
c240 -283 350 -565 347 -889 -1 -157 -4 -164 -61 -186 -25 -9 -60 -27 -77 -39
l-31 -22 -83 20 c-45 11 -125 42 -177 67 -81 40 -109 60 -186 139 -78 77 -99
106 -138 187 -70 144 -117 356 -115 528 l0 65 52 41 c88 71 204 131 307 160
81 22 84 21 162 -71z m602 -59 c86 -62 215 -200 266 -284 45 -77 100 -220 100
-263 0 -36 -33 -127 -75 -208 -74 -140 -179 -239 -297 -281 -29 -10 -54 -17
-56 -16 -1 2 15 37 37 77 21 41 52 112 67 159 27 81 28 95 28 265 0 165 -2
188 -27 279 -23 81 -63 188 -114 304 -9 21 7 14 71 -32z m-1214 -237 c0 -173
74 -427 165 -563 112 -170 303 -301 504 -348 28 -6 51 -15 51 -19 0 -11 -144
-29 -234 -29 -199 0 -424 72 -612 197 -52 35 -53 35 -64 106 -20 117 -8 314
25 417 15 47 36 103 47 125 26 53 101 165 110 165 5 0 8 -23 8 -51z m1585
-682 c-21 -103 -62 -207 -115 -291 l-42 -66 -46 0 c-59 1 -133 26 -205 70 -65
39 -63 54 8 65 25 3 81 24 125 46 95 48 178 126 241 227 52 85 59 74 34 -51z
m-517 -153 c29 -20 28 -27 -14 -73 -38 -43 -109 -73 -174 -75 -75 -2 -94 54
-36 100 72 58 178 81 224 48z m-918 -166 c47 -15 112 -33 145 -39 82 -18 323
-15 405 4 36 8 69 12 73 8 22 -21 -143 -102 -256 -125 -87 -18 -279 -21 -377
-6 -61 10 -68 13 -122 70 -47 49 -138 182 -138 202 0 3 42 -16 93 -41 50 -25
130 -58 177 -73z m949 -33 c56 -40 143 -81 195 -90 20 -4 36 -11 36 -15 0 -12
-85 -85 -148 -127 -51 -33 -202 -106 -209 -100 -1 2 9 30 22 64 29 70 48 191
39 239 -6 32 -1 64 11 64 3 0 27 -16 54 -35z m-162 -95 c-6 -89 -41 -177 -95
-240 l-30 -35 -118 1 c-146 1 -260 26 -383 86 l-86 42 145 7 c220 11 362 61
481 169 30 27 63 49 73 50 17 0 18 -6 13 -80z"/>
</g>
</svg>
