<?xml version="1.0" standalone="no"?>
<!DOCTYPE svg PUBLIC "-//W3C//DTD SVG 20010904//EN"
 "http://www.w3.org/TR/2001/REC-SVG-20010904/DTD/svg10.dtd">
<svg version="1.0" xmlns="http://www.w3.org/2000/svg"
 width="1536.000000pt" height="1536.000000pt" viewBox="0 0 1536.000000 1536.000000"
 preserveAspectRatio="xMidYMid meet">

<g transform="translate(0.000000,1536.000000) scale(0.100000,-0.100000)"
fill="#000000" stroke="none">
<path d="M7395 13483 c-719 -35 -1293 -126 -1858 -294 -144 -43 -422 -141
-434 -153 -2 -2 14 -49 37 -105 121 -304 191 -659 191 -971 1 -320 -58 -549
-196 -755 -62 -93 -185 -215 -267 -263 -133 -79 -307 -136 -495 -164 -132 -19
-507 -16 -673 6 -167 22 -397 67 -510 101 -47 13 -91 25 -98 25 -18 0 -11
-2594 7 -2795 99 -1107 326 -1994 710 -2781 204 -417 393 -711 726 -1129 615
-773 1306 -1388 2075 -1849 294 -177 778 -402 1000 -466 l75 -22 120 40 c317
106 739 314 1095 540 711 451 1348 1033 1925 1757 333 418 522 712 726 1129
384 787 611 1674 710 2781 18 201 25 2795 7 2795 -7 0 -51 -12 -98 -25 -113
-33 -344 -80 -505 -101 -187 -25 -582 -25 -720 0 -285 52 -473 142 -620 298
-128 134 -212 297 -261 505 -35 147 -44 455 -20 643 32 242 93 488 171 687 25
64 44 117 42 119 -12 12 -291 111 -434 153 -549 164 -1112 255 -1793 291 -177
9 -483 11 -635 3z m840 -238 c492 -37 918 -104 1305 -206 154 -40 413 -119
423 -128 4 -5 -8 -59 -27 -122 -157 -522 -173 -1025 -44 -1404 133 -391 409
-656 803 -770 312 -90 744 -99 1172 -24 65 11 135 23 156 26 l37 6 0 -1029 c0
-566 -5 -1117 -10 -1224 -64 -1271 -396 -2480 -918 -3350 -364 -606 -997
-1328 -1620 -1848 -554 -462 -1223 -861 -1749 -1043 l-83 -29 -83 29 c-136 47
-320 127 -507 221 -939 470 -1838 1252 -2565 2230 -358 482 -609 971 -813
1585 -203 609 -321 1212 -393 2015 -7 80 -13 542 -16 1283 -4 1115 -4 1157 14
1157 10 0 63 -9 118 -19 230 -44 360 -56 635 -56 288 0 400 13 595 70 394 114
670 379 803 770 129 379 113 882 -45 1403 -27 92 -32 117 -21 123 38 24 408
129 628 178 685 153 1489 210 2205 156z"/>
<path d="M7395 12974 c-27 -2 -124 -9 -215 -14 -302 -20 -594 -55 -870 -106
-137 -25 -538 -120 -557 -132 -7 -5 -3 -41 13 -112 84 -371 97 -789 33 -1103
-77 -381 -281 -716 -568 -933 -147 -111 -379 -214 -591 -263 -278 -65 -685
-78 -1007 -34 l-45 6 5 -1009 c4 -1070 5 -1094 58 -1514 57 -460 153 -918 278
-1332 49 -163 126 -386 136 -397 3 -3 413 402 910 899 497 497 907 902 910
899 7 -8 -28 -199 -64 -346 -68 -276 -197 -583 -314 -745 l-56 -78 82 46 c188
103 629 314 658 314 22 0 -143 -287 -240 -417 -34 -45 -85 -108 -113 -139
l-52 -56 84 42 c177 89 566 260 591 260 5 0 9 -17 9 -39 0 -56 26 -193 55
-296 65 -225 216 -458 375 -578 l35 -27 -55 16 c-30 9 -77 25 -104 37 -34 14
-51 17 -53 10 -9 -27 -72 -96 -121 -132 -141 -107 -334 -118 -491 -30 l-54 31
-51 -50 c-110 -108 -227 -155 -384 -156 l-103 0 35 -18 c89 -45 217 -60 311
-34 55 14 150 60 160 76 10 17 32 11 80 -21 64 -43 147 -70 235 -76 130 -9
242 27 354 115 l59 46 -31 -60 c-66 -121 -162 -205 -291 -250 -124 -44 -291
-27 -408 40 -24 14 -43 22 -43 18 0 -4 20 -33 45 -65 90 -113 245 -203 408
-235 l78 -15 -535 -536 -536 -536 167 -166 c189 -185 284 -271 458 -414 273
-224 602 -453 875 -610 254 -146 681 -345 741 -345 56 0 472 195 724 340 798
458 1541 1130 2163 1955 219 291 345 492 493 787 331 662 561 1483 659 2361
41 369 43 407 47 1422 l4 1000 -778 -777 c-428 -428 -781 -778 -786 -778 -4 0
-7 16 -7 35 0 104 -58 415 -106 568 l-25 77 -250 0 -249 0 44 88 c55 109 98
230 127 358 32 140 32 382 1 499 -78 289 -282 502 -588 611 -54 20 -101 38
-103 40 -3 3 110 120 252 262 l256 257 -16 85 c-13 66 -17 145 -17 355 0 289
13 411 68 655 16 71 20 107 13 112 -19 12 -420 107 -557 132 -262 48 -520 80
-850 106 -138 11 -715 21 -805 14z m413 -456 c9 -9 12 -105 12 -370 l0 -357
-32 5 c-18 3 -39 7 -45 10 -10 3 -13 82 -13 352 0 366 1 372 45 372 12 0 26
-5 33 -12z m-197 -200 c-27 -55 -39 -149 -27 -213 4 -19 21 -51 38 -70 l30
-35 -97 0 c-93 0 -290 -31 -308 -49 -5 -5 15 -11 42 -15 59 -8 181 -44 196
-57 5 -5 -18 -9 -59 -9 -177 0 -458 -64 -695 -159 -29 -12 -56 -20 -58 -17 -3
3 37 47 89 98 100 101 237 198 343 244 l65 28 0 62 0 62 48 31 c77 49 198 101
296 126 130 34 128 35 97 -27z m448 -614 c355 -52 601 -224 674 -471 21 -71
30 -177 19 -239 l-9 -52 111 -17 c143 -22 275 -64 401 -128 84 -43 115 -66
196 -147 85 -83 102 -107 142 -190 58 -122 77 -209 77 -355 0 -233 -68 -451
-226 -726 -24 -42 -44 -79 -44 -82 0 -4 135 -7 299 -7 l299 0 26 -107 c33
-139 52 -253 67 -392 15 -145 6 -531 -15 -664 -86 -526 -282 -941 -624 -1316
l-58 -64 1 74 c0 58 -5 84 -23 122 -46 92 -158 176 -292 218 -43 13 -54 21
-52 35 3 16 352 382 556 584 l76 74 0 78 0 78 -66 0 -66 0 -454 -342 -454
-341 0 -38 0 -37 -102 5 c-187 10 -513 -20 -808 -73 -479 -86 -1154 -305
-1543 -501 -120 -60 -125 -60 -74 -3 364 405 599 1075 574 1640 -14 312 -94
587 -230 791 -40 61 -157 193 -164 185 -2 -2 7 -42 21 -87 121 -400 148 -1109
65 -1663 -19 -126 -61 -314 -78 -343 -4 -8 -82 -49 -172 -92 -145 -68 -351
-176 -417 -219 -19 -12 -11 9 42 115 155 309 258 659 308 1043 20 162 17 652
-5 805 -39 258 -103 484 -193 674 -30 63 -54 116 -54 118 0 2 287 2 637 1
l637 -3 -3 -60 c-1 -33 -9 -109 -16 -169 -8 -61 -13 -111 -11 -113 7 -7 135
174 164 232 77 156 112 306 112 485 0 187 -41 355 -125 507 -20 36 -35 66 -33
67 34 24 97 54 199 94 368 147 702 228 1049 254 88 6 160 14 160 18 0 16 -54
77 -96 106 -306 218 -1087 14 -1687 -439 -49 -37 -87 -64 -85 -60 2 5 22 46
45 93 98 198 109 414 28 583 -13 29 -47 80 -75 115 l-51 63 88 41 c276 127
538 206 808 242 140 19 394 19 524 0z m-1064 -1421 c-83 -160 -175 -283 -321
-430 -73 -73 -136 -133 -141 -133 -6 0 -13 46 -16 103 -10 166 -66 347 -152
486 -25 40 -45 75 -45 77 0 2 165 4 366 4 l365 0 -56 -107z m-2047 -405 c82
-35 154 -89 203 -151 22 -27 38 -51 36 -54 -2 -2 -44 4 -93 13 -57 10 -170 18
-317 21 l-227 6 2 -349 3 -349 141 1 c133 0 145 2 198 28 84 41 158 141 173
233 6 38 15 40 94 17 108 -31 111 -33 104 -73 -11 -56 -68 -171 -114 -228 -24
-29 -76 -75 -116 -101 l-74 -49 40 -39 c24 -23 115 -164 227 -349 102 -171
206 -332 232 -359 25 -27 68 -61 95 -77 l50 -29 -170 0 -170 1 -220 370 c-125
212 -234 383 -252 399 -41 36 -89 50 -175 50 l-68 0 0 -110 0 -109 -46 19
c-25 11 -70 36 -100 56 l-54 36 0 512 c0 580 -1 589 -70 659 l-39 38 322 -3
322 -3 63 -27z m12 -258 c119 -13 232 -35 335 -67 84 -26 277 -116 295 -138 9
-10 -6 -39 -62 -118 l-72 -105 -17 37 c-21 48 -54 74 -137 105 -167 64 -333
90 -534 84 l-139 -3 3 100 3 100 45 6 c73 10 179 9 280 -1z m-700 -275 l0
-125 -39 -58 c-56 -82 -75 -146 -69 -237 17 -256 304 -455 657 -455 l76 0 57
-94 c53 -90 55 -94 35 -100 -37 -10 -288 -6 -357 5 -95 15 -234 64 -319 112
-96 54 -225 176 -274 258 -124 210 -107 457 47 658 38 51 160 161 178 161 4 0
8 -56 8 -125z m1270 -751 c68 -100 71 -106 54 -120 -27 -20 -203 -108 -208
-103 -2 2 -27 42 -55 89 l-51 85 73 35 c61 30 75 41 92 77 11 23 20 42 21 43
1 0 34 -48 74 -106z m-1067 -358 c74 -24 87 -32 87 -50 0 -49 31 -124 65 -159
l36 -37 -202 0 -203 0 31 33 c47 49 64 92 70 174 4 47 10 73 17 71 6 -2 50
-16 99 -32z m5067 -355 c0 -25 -42 -64 -371 -342 -293 -247 -367 -314 -352
-320 10 -3 42 -10 71 -14 l54 -7 -7 -37 c-84 -469 -244 -976 -425 -1348 -50
-102 -74 -141 -84 -137 -11 4 -6 23 24 93 145 334 245 838 268 1349 l7 159
405 317 c223 174 406 316 407 316 2 0 3 -13 3 -29z m-925 -888 c-3 -24 -11
-43 -16 -43 -5 0 -53 -5 -107 -11 -324 -35 -700 -166 -941 -327 -78 -51 -247
-200 -238 -209 2 -2 44 20 93 48 181 105 489 237 705 303 136 41 302 74 412
83 89 7 84 16 67 -114 -17 -130 -13 -123 -73 -123 -123 0 -413 -62 -631 -135
-294 -98 -667 -269 -982 -450 l-62 -35 -39 53 c-106 140 -189 328 -218 494 -8
47 -14 87 -13 88 4 3 259 95 262 95 2 0 6 -28 9 -62 4 -35 11 -80 17 -100 16
-55 69 -120 120 -146 133 -69 322 63 396 275 l19 53 180 89 c330 163 657 271
955 315 l85 12 3 -55 c2 -31 1 -75 -3 -98z m441 -168 c23 -49 54 -124 67 -165
l25 -75 -20 -50 c-11 -27 -21 -51 -23 -53 -1 -2 -18 23 -36 55 -18 32 -55 93
-82 136 l-50 79 23 100 c28 116 27 117 96 -27z m-2033 -110 c7 -70 50 -149 96
-177 l35 -22 -42 -18 c-87 -38 -175 16 -207 127 -25 83 -19 104 35 125 73 29
76 27 83 -35z m1961 -231 c31 -55 56 -109 56 -119 0 -9 -12 -40 -27 -67 -27
-50 -28 -50 -42 -28 -8 12 -41 57 -73 100 l-58 78 25 73 c38 112 34 105 49 83
7 -10 39 -64 70 -120z m-436 -31 c-5 -27 -16 -80 -24 -119 l-15 -71 -107 -12
c-351 -40 -775 -176 -1253 -399 l-107 -50 -55 43 c-30 24 -58 48 -61 53 -7 12
286 171 485 263 210 98 452 191 615 239 170 49 389 93 500 98 l32 2 -10 -47z
m316 -207 c31 -46 56 -87 56 -92 0 -5 -16 -33 -36 -62 l-36 -54 -53 59 c-30
32 -54 61 -55 65 0 9 61 168 65 168 2 0 29 -38 59 -84z m-384 -101 c0 -34
-137 -405 -149 -405 -5 0 -31 24 -59 53 -56 61 -105 149 -127 233 -18 69 -20
72 -35 45 -18 -34 -149 -133 -237 -179 -170 -88 -371 -139 -588 -148 l-120 -5
39 21 c61 34 278 127 431 185 229 87 448 148 654 185 103 18 191 25 191 15z
m300 -186 c0 -12 -175 -182 -223 -216 l-44 -32 51 93 c28 51 69 130 91 175
l40 83 43 -48 c23 -27 42 -52 42 -55z m-659 -145 c63 -128 192 -230 339 -269
125 -33 315 -13 454 49 32 14 61 26 64 26 3 0 -7 -14 -23 -30 l-29 -30 49 -50
c78 -79 211 -137 325 -141 32 -1 30 -2 -20 -15 -76 -20 -208 -13 -282 16 -32
11 -85 41 -118 66 l-61 45 -79 -40 c-198 -99 -408 -92 -548 19 -69 54 -116
130 -148 239 -3 8 -17 -4 -35 -33 -44 -66 -148 -157 -221 -194 -87 -43 -167
-62 -268 -62 -97 0 -163 15 -253 58 -61 29 -173 109 -164 118 3 3 33 -3 68
-12 48 -14 100 -18 209 -17 123 0 160 4 243 26 168 45 310 127 412 240 28 30
51 55 52 56 1 1 16 -29 34 -65z m-1040 -503 c80 -42 163 -61 271 -61 103 0
185 17 261 56 27 13 52 23 54 20 9 -9 -55 -92 -91 -120 -157 -119 -374 -120
-528 -3 l-47 36 -48 -29 c-90 -56 -231 -74 -314 -41 -21 9 -20 10 18 10 100 2
219 62 290 146 35 42 38 44 58 30 11 -8 45 -28 76 -44z m1790 -15 c77 -43 153
-59 248 -54 48 3 104 13 125 22 60 25 53 13 -11 -22 -159 -84 -332 -83 -478 3
-26 15 -45 28 -43 30 4 4 100 42 109 44 4 1 26 -10 50 -23z m-721 -41 c132 0
152 3 218 27 39 14 72 23 72 18 0 -16 -100 -100 -151 -127 -47 -24 -65 -28
-139 -28 -70 0 -93 4 -130 24 -54 28 -95 62 -132 106 l-28 33 73 -26 c65 -24
85 -27 217 -27z m-984 -577 c-35 -50 -26 -76 252 -734 147 -348 269 -634 272
-634 3 0 22 43 44 95 l38 95 109 0 c60 0 109 -3 109 -6 0 -13 -295 -704 -300
-704 -3 0 -165 377 -359 838 -421 995 -418 988 -465 1035 l-37 37 176 0 176 0
-15 -22z m1351 -10 c-37 -35 -66 -87 -117 -210 -17 -43 -34 -78 -37 -78 -3 0
-47 14 -98 31 l-93 32 29 68 c32 76 37 133 13 167 l-15 22 176 0 176 0 -34
-32z m-522 -273 c142 -24 261 -62 380 -119 163 -79 156 -64 79 -176 -36 -52
-70 -99 -74 -104 -4 -4 -16 9 -26 29 -22 46 -67 76 -174 113 -158 55 -236 67
-445 67 -168 -1 -197 -3 -255 -22 -35 -12 -65 -21 -65 -20 -18 31 -74 180 -71
186 8 12 152 50 229 61 84 12 312 4 422 -15z m-926 -359 c46 -112 47 -116 26
-157 -44 -83 -39 -204 11 -307 33 -68 122 -158 199 -203 l59 -35 52 -120 c35
-81 47 -120 39 -122 -20 -5 -152 45 -224 84 -231 127 -370 337 -371 561 0 89
16 157 60 248 34 69 97 162 105 153 1 -2 21 -48 44 -102z m1069 29 c45 -15 82
-30 81 -33 0 -4 -15 -41 -33 -82 l-32 -75 -111 -3 -112 -3 40 98 c52 125 57
133 72 128 6 -2 49 -15 95 -30z m370 -537 l-3 -262 -90 -48 c-106 -56 -268
-111 -391 -133 -134 -23 -128 -31 -76 94 l45 108 76 17 c42 10 112 32 156 50
l80 32 3 97 3 97 -319 0 -319 0 -42 100 c-22 55 -41 103 -41 105 0 3 207 5
460 5 l460 0 -2 -262z"/>
<path d="M8368 9659 c-334 -27 -772 -157 -1092 -322 l-81 -42 1029 -3 c567 -1
1034 2 1038 6 17 17 -52 130 -113 186 -106 98 -260 155 -474 176 -121 11 -164
11 -307 -1z"/>
<path d="M7846 9007 c107 -79 201 -200 260 -334 30 -69 62 -189 53 -198 -11
-11 -163 38 -244 79 -110 55 -205 131 -279 226 l-56 72 0 -503 c0 -276 2 -500
4 -498 2 2 27 33 55 69 90 113 201 196 331 250 76 31 177 57 187 47 11 -11
-26 -139 -62 -216 -60 -125 -161 -249 -270 -328 l-30 -22 493 -1 494 0 -61 46
c-132 99 -250 275 -289 429 -23 94 -23 95 -4 95 64 0 238 -69 325 -128 69 -48
143 -119 192 -183 l45 -61 0 499 -1 498 -21 -30 c-81 -111 -224 -228 -345
-281 -59 -27 -203 -67 -210 -60 -7 7 25 123 51 188 57 141 171 284 296 370 24
16 -2 17 -474 17 l-498 1 58 -43z"/>
</g>
</svg>
