<?xml version="1.0" standalone="no"?>
<!DOCTYPE svg PUBLIC "-//W3C//DTD SVG 20010904//EN"
 "http://www.w3.org/TR/2001/REC-SVG-20010904/DTD/svg10.dtd">
<svg version="1.0" xmlns="http://www.w3.org/2000/svg"
 width="1536.000000pt" height="1536.000000pt" viewBox="0 0 1536.000000 1536.000000"
 preserveAspectRatio="xMidYMid meet">

<g transform="translate(0.000000,1536.000000) scale(0.100000,-0.100000)"
fill="#000000" stroke="none">
<path d="M7622 12970 c-206 -276 -560 -614 -887 -847 -326 -233 -737 -433
-1110 -543 -516 -150 -1064 -179 -1620 -85 -174 29 -421 89 -583 140 -63 20
-115 35 -117 33 -7 -7 -55 -343 -69 -483 -55 -553 -46 -1243 24 -1840 220
-1868 1005 -3626 2287 -5121 369 -430 843 -901 1288 -1278 263 -223 821 -656
845 -656 4 0 81 55 171 121 1788 1330 3042 2939 3729 4783 258 694 434 1424
520 2151 70 596 79 1309 24 1845 -14 136 -62 471 -69 478 -1 2 -63 -16 -136
-38 -264 -81 -535 -139 -814 -172 -165 -20 -645 -16 -810 5 -690 92 -1305 360
-1885 823 -173 138 -486 451 -620 619 -57 72 -106 131 -109 133 -4 1 -30 -29
-59 -68z m138 -586 c41 -47 126 -133 188 -190 967 -888 2243 -1252 3582 -1023
96 17 189 33 206 36 38 6 37 11 58 -187 37 -328 48 -847 26 -1195 -91 -1439
-515 -2792 -1268 -4045 -639 -1065 -1515 -2033 -2606 -2882 -105 -82 -208
-160 -229 -175 l-37 -26 -37 26 c-106 76 -371 284 -543 427 -1155 963 -2028
2041 -2634 3250 -511 1021 -803 2048 -913 3210 -26 270 -26 1073 0 1313 19
178 33 277 41 284 3 3 69 -7 148 -21 1058 -194 2054 -38 2918 457 342 195 720
492 930 730 47 53 87 97 90 97 3 0 39 -39 80 -86z"/>
<path d="M7605 12115 c-37 -41 -120 -123 -185 -181 -573 -513 -1279 -859
-2021 -989 -255 -45 -422 -58 -714 -58 -335 0 -447 11 -900 86 -13 2 -30 -133
-45 -358 -9 -119 -11 -299 -7 -535 6 -375 23 -604 72 -945 14 -99 25 -183 25
-187 0 -5 1732 -8 3849 -8 l3848 0 6 38 c79 542 92 716 92 1227 0 351 -3 460
-18 595 -10 90 -20 167 -22 171 -3 3 -48 -3 -102 -13 -774 -149 -1587 -75
-2303 209 -280 111 -501 228 -775 409 -248 164 -504 376 -652 542 -36 39 -68
72 -73 72 -4 0 -38 -34 -75 -75z m-2060 -1499 c106 -29 240 -101 305 -166 33
-32 60 -62 60 -68 0 -9 -272 -182 -286 -182 -4 0 -24 18 -46 40 -51 50 -131
81 -230 88 -140 9 -235 -41 -295 -155 -42 -79 -57 -150 -56 -263 2 -204 89
-350 233 -390 56 -16 143 -12 215 11 51 16 77 31 113 67 26 26 52 55 57 66 10
17 23 11 162 -75 l151 -93 -29 -42 c-68 -99 -207 -191 -344 -229 -33 -9 -116
-19 -185 -22 -154 -6 -237 10 -359 68 -69 34 -102 58 -167 123 -124 124 -183
249 -206 434 -21 159 15 342 93 480 48 84 179 210 266 255 119 62 195 78 353
73 82 -2 158 -10 195 -20z m2437 -686 c141 -377 257 -688 257 -692 1 -5 -83
-8 -186 -8 l-188 0 -41 118 -41 117 -244 3 -244 2 -41 -117 -41 -118 -188 -3
c-155 -2 -186 0 -182 11 3 8 115 308 250 668 135 360 250 666 256 682 l11 27
182 -2 183 -3 257 -685z m1697 658 c5 -18 57 -213 115 -433 58 -220 109 -413
114 -430 7 -25 13 -10 46 115 20 80 74 287 119 460 l82 315 265 0 265 0 3
-692 2 -693 -170 0 -170 0 -1 228 c-1 125 -4 353 -8 507 l-6 280 -137 -496
c-76 -272 -138 -501 -138 -507 0 -9 -40 -12 -143 -12 l-144 0 -137 492 c-76
270 -142 501 -146 512 -5 12 -9 -207 -9 -491 l-1 -513 -170 0 -170 0 0 695 0
695 264 0 264 0 11 -32z"/>
<path d="M7458 9983 c-64 -195 -72 -229 -59 -235 22 -9 291 -10 291 0 1 16
-146 462 -152 462 -3 0 -39 -102 -80 -227z"/>
<path d="M3890 8645 c0 -41 94 -435 151 -635 245 -851 605 -1637 1102 -2398
l102 -157 3 1590 c1 875 0 1596 -3 1603 -3 9 -149 12 -680 12 -597 0 -675 -2
-675 -15z"/>
<path d="M5570 6838 l0 -1821 42 -56 c64 -86 269 -331 402 -481 131 -148 720
-740 736 -740 7 0 10 808 10 2460 l0 2460 -595 0 -595 0 0 -1822z"/>
<path d="M7087 8653 c-4 -3 -7 -1175 -7 -2604 l0 -2599 91 -77 c138 -117 492
-392 506 -393 16 0 130 86 395 299 l208 166 0 2608 0 2607 -593 0 c-327 0
-597 -3 -600 -7z"/>
<path d="M8607 8653 c-12 -12 -8 -4913 4 -4913 5 0 151 141 323 313 309 309
522 544 748 825 l118 147 0 1817 0 1818 -593 0 c-327 0 -597 -3 -600 -7z"/>
<path d="M10120 7070 c0 -874 2 -1590 5 -1590 2 0 47 64 98 143 515 784 912
1673 1142 2561 47 182 105 436 105 461 0 13 -80 15 -675 15 l-675 0 0 -1590z"/>
</g>
</svg>
