<?xml version="1.0" standalone="no"?>
<!DOCTYPE svg PUBLIC "-//W3C//DTD SVG 20010904//EN"
 "http://www.w3.org/TR/2001/REC-SVG-20010904/DTD/svg10.dtd">
<svg version="1.0" xmlns="http://www.w3.org/2000/svg"
 width="3200.000000pt" height="3191.000000pt" viewBox="0 0 3200.000000 3191.000000"
 preserveAspectRatio="xMidYMid meet">

<g transform="translate(0.000000,3191.000000) scale(0.100000,-0.100000)"
fill="#000000" stroke="none">
<path d="M917 30993 c-4 -3 -7 -2642 -7 -5863 l0 -5856 7542 -9195 c4147
-5056 7544 -9194 7548 -9194 4 0 3401 4138 7548 9194 l7542 9195 -2 5860 -3
5861 -15081 3 c-8294 1 -15084 -1 -15087 -5z m29943 -5931 l0 -5708 -7427
-9057 c-4086 -4981 -7430 -9056 -7433 -9056 -3 0 -3347 4075 -7432 9056
l-7428 9057 0 5708 0 5708 14860 0 14860 0 0 -5708z"/>
<path d="M2490 25335 l0 -3945 13510 0 13510 0 0 3945 0 3945 -13510 0 -13510
0 0 -3945z m6430 2130 l0 -495 -1487 -1 c-819 0 -1578 -4 -1688 -8 -190 -7
-203 -8 -251 -34 -60 -31 -99 -73 -114 -125 -8 -24 -10 -126 -8 -292 3 -237 5
-258 25 -302 32 -69 108 -141 176 -167 l58 -21 1168 0 c719 0 1218 -4 1297
-10 472 -38 734 -199 809 -496 14 -54 15 -198 13 -1165 -3 -1026 -4 -1108 -21
-1164 -34 -113 -77 -186 -157 -265 -80 -80 -150 -123 -260 -160 -157 -51 -103
-50 -2287 -50 l-2033 0 0 570 0 570 1655 0 c1816 0 1684 -4 1738 59 14 17 33
54 44 83 16 48 18 89 18 423 0 403 -2 419 -56 471 l-30 29 -1272 6 c-1389 6
-1354 4 -1565 65 -276 79 -464 250 -502 456 -7 37 -10 388 -8 1035 3 896 5
983 21 1038 70 240 240 375 542 429 67 12 403 14 2128 15 l2047 1 0 -495z
m5405 480 c243 -37 421 -117 573 -260 150 -140 238 -319 262 -530 13 -117 13
-1564 0 -1711 -38 -430 -281 -689 -750 -800 -70 -17 -170 -18 -1387 -21
l-1313 -4 0 -979 0 -980 -642 2 -643 3 -3 2648 -2 2647 1902 0 c1641 0 1917
-2 2003 -15z m7175 -480 l0 -495 -1775 0 -1775 0 0 -590 0 -590 1318 -2 1317
-3 3 -577 2 -578 -1330 0 -1330 0 0 -990 0 -990 -590 0 -590 0 0 2655 0 2655
2375 0 2375 0 0 -495z m5545 484 c144 -18 271 -54 385 -110 90 -45 117 -65
190 -138 65 -65 95 -104 122 -161 72 -146 71 -140 75 -777 l4 -573 -590 0
-589 0 -6 63 c-3 34 -10 161 -15 282 -10 232 -20 287 -64 333 -30 33 -46 40
-129 59 -66 15 -168 17 -1033 18 -1038 0 -1042 0 -1140 -53 -78 -43 -88 -68
-96 -251 -4 -86 -8 -713 -9 -1394 -1 -1201 -1 -1239 18 -1275 22 -43 68 -78
126 -93 49 -13 2027 -13 2074 0 82 24 147 87 184 180 22 54 22 66 19 334 l-3
277 637 0 636 0 -4 -597 c-3 -579 -4 -601 -25 -682 -104 -395 -412 -651 -899
-748 -81 -16 -206 -17 -1518 -21 -991 -2 -1463 0 -1537 8 -141 14 -260 48
-383 110 -233 117 -390 309 -457 560 l-23 85 -3 1890 c-2 1265 1 1922 8 1988
40 375 297 616 720 676 41 6 86 13 100 15 14 2 725 4 1580 5 1076 1 1583 -2
1645 -10z"/>
<path d="M11710 26255 l0 -545 1013 0 c583 0 1036 4 1069 10 84 13 127 37 159
88 44 70 51 141 47 492 -3 296 -4 318 -24 360 -26 54 -65 93 -119 117 -38 17
-103 18 -1092 21 l-1053 3 0 -546z"/>
<path d="M18300 13173 c0 -6676 0 -6797 19 -6778 14 15 11006 13489 11064
13563 7 9 -1101 12 -5537 12 l-5546 0 0 -6797z"/>
<path d="M2567 19948 c41 -52 11048 -13546 11059 -13558 12 -12 14 967 14
6778 l0 6792 -5541 0 c-4432 0 -5539 -3 -5532 -12z"/>
</g>
</svg>
